HIERARCHY
ROOT Hips
{
	OFFSET 0 93.02 0
	CHANNELS 6 Xposition Yposition Zposition Yrotation Xrotation Zrotation 
	JOINT RightUpLeg
	{
		OFFSET -9.25 -1.59 0
		CHANNELS 6 Xposition Yposition Zposition Yrotation Xrotation Zrotation 
		JOINT RightLeg
		{
			OFFSET 0 -41.87 0
			CHANNELS 6 Xposition Yposition Zposition Yrotation Xrotation Zrotation 
			JOINT RightFoot
			{
				OFFSET 0 -41.87 0
				CHANNELS 6 Xposition Yposition Zposition Yrotation Xrotation Zrotation 
				End Site
				{
					OFFSET 0 -7.69 17.5
				}
			}
		}
	}
	JOINT LeftUpLeg
	{
		OFFSET 9.25 -1.59 0
		CHANNELS 6 Xposition Yposition Zposition Yrotation Xrotation Zrotation 
		JOINT LeftLeg
		{
			OFFSET 0 -41.87 0
			CHANNELS 6 Xposition Yposition Zposition Yrotation Xrotation Zrotation 
			JOINT LeftFoot
			{
				OFFSET 0 -41.87 0
				CHANNELS 6 Xposition Yposition Zposition Yrotation Xrotation Zrotation 
				End Site
				{
					OFFSET 0 -7.69 17.5
				}
			}
		}
	}
	JOINT Spine
	{
		OFFSET 0 14.307 0
		CHANNELS 6 Xposition Yposition Zposition Yrotation Xrotation Zrotation 
		JOINT Spine1
		{
			OFFSET 0 9.718 0
			CHANNELS 6 Xposition Yposition Zposition Yrotation Xrotation Zrotation 
			JOINT Spine2
			{
				OFFSET 0 10.12 0
				CHANNELS 6 Xposition Yposition Zposition Yrotation Xrotation Zrotation 
				JOINT Spine3
				{
					OFFSET 0 9.718 0
					CHANNELS 6 Xposition Yposition Zposition Yrotation Xrotation Zrotation 
					JOINT Neck
					{
						OFFSET 0 10.387 0
						CHANNELS 6 Xposition Yposition Zposition Yrotation Xrotation Zrotation 
						JOINT Head
						{
							OFFSET 0 9.47 0
							CHANNELS 6 Xposition Yposition Zposition Yrotation Xrotation Zrotation 
							End Site
							{
								OFFSET 0 15.95 0
							}
						}
					}
					JOINT RightShoulder
					{
						OFFSET -3.2 6.925 0
						CHANNELS 6 Xposition Yposition Zposition Yrotation Xrotation Zrotation 
						JOINT RightArm
						{
							OFFSET -12.8 0 0
							CHANNELS 6 Xposition Yposition Zposition Yrotation Xrotation Zrotation 
							JOINT RightForeArm
							{
								OFFSET -26.5 0 0
								CHANNELS 6 Xposition Yposition Zposition Yrotation Xrotation Zrotation 
								JOINT RightHand
								{
									OFFSET -26 0 0
									CHANNELS 6 Xposition Yposition Zposition Yrotation Xrotation Zrotation 
									JOINT RightHandThumb1
									{
										OFFSET -2.489 0.19 3.121
										CHANNELS 6 Xposition Yposition Zposition Yrotation Xrotation Zrotation 
										JOINT RightHandThumb2
										{
											OFFSET -3.683 0 0
											CHANNELS 6 Xposition Yposition Zposition Yrotation Xrotation Zrotation 
											JOINT RightHandThumb3
											{
												OFFSET -2.558 0 0
												CHANNELS 6 Xposition Yposition Zposition Yrotation Xrotation Zrotation 
												End Site
												{
													OFFSET -2.194 0 0
												}
											}
										}
									}
									JOINT RightInHandIndex
									{
										OFFSET -3.224 0.508 1.978
										CHANNELS 6 Xposition Yposition Zposition Yrotation Xrotation Zrotation 
										JOINT RightHandIndex1
										{
											OFFSET -5.217 -0.091 0.999
											CHANNELS 6 Xposition Yposition Zposition Yrotation Xrotation Zrotation 
											JOINT RightHandIndex2
											{
												OFFSET -3.619 0 0
												CHANNELS 6 Xposition Yposition Zposition Yrotation Xrotation Zrotation 
												JOINT RightHandIndex3
												{
													OFFSET -2.052 0 0
													CHANNELS 6 Xposition Yposition Zposition Yrotation Xrotation Zrotation 
													End Site
													{
														OFFSET -1.805 0 0
													}
												}
											}
										}
									}
									JOINT RightInHandMiddle
									{
										OFFSET -3.382 0.517 0.757
										CHANNELS 6 Xposition Yposition Zposition Yrotation Xrotation Zrotation 
										JOINT RightHandMiddle1
										{
											OFFSET -5.174 -0.084 0.314
											CHANNELS 6 Xposition Yposition Zposition Yrotation Xrotation Zrotation 
											JOINT RightHandMiddle2
											{
												OFFSET -3.949 0 0
												CHANNELS 6 Xposition Yposition Zposition Yrotation Xrotation Zrotation 
												JOINT RightHandMiddle3
												{
													OFFSET -2.476 0 0
													CHANNELS 6 Xposition Yposition Zposition Yrotation Xrotation Zrotation 
													End Site
													{
														OFFSET -1.975 0 0
													}
												}
											}
										}
									}
									JOINT RightInHandRing
									{
										OFFSET -3.365 0.538 -0.129
										CHANNELS 6 Xposition Yposition Zposition Yrotation Xrotation Zrotation 
										JOINT RightHandRing1
										{
											OFFSET -4.635 -0.022 -0.479
											CHANNELS 6 Xposition Yposition Zposition Yrotation Xrotation Zrotation 
											JOINT RightHandRing2
											{
												OFFSET -3.442 0 0
												CHANNELS 6 Xposition Yposition Zposition Yrotation Xrotation Zrotation 
												JOINT RightHandRing3
												{
													OFFSET -2.388 0 0
													CHANNELS 6 Xposition Yposition Zposition Yrotation Xrotation Zrotation 
													End Site
													{
														OFFSET -1.857 0 0
													}
												}
											}
										}
									}
									JOINT RightInHandPinky
									{
										OFFSET -3.161 0.469 -1.202
										CHANNELS 6 Xposition Yposition Zposition Yrotation Xrotation Zrotation 
										JOINT RightHandPinky1
										{
											OFFSET -4.141 -0.022 -1.091
											CHANNELS 6 Xposition Yposition Zposition Yrotation Xrotation Zrotation 
											JOINT RightHandPinky2
											{
												OFFSET -2.757 0 0
												CHANNELS 6 Xposition Yposition Zposition Yrotation Xrotation Zrotation 
												JOINT RightHandPinky3
												{
													OFFSET -1.742 0 0
													CHANNELS 6 Xposition Yposition Zposition Yrotation Xrotation Zrotation 
													End Site
													{
														OFFSET -1.645 0 0
													}
												}
											}
										}
									}
								}
							}
						}
					}
					JOINT LeftShoulder
					{
						OFFSET 3.2 6.925 0
						CHANNELS 6 Xposition Yposition Zposition Yrotation Xrotation Zrotation 
						JOINT LeftArm
						{
							OFFSET 12.8 0 0
							CHANNELS 6 Xposition Yposition Zposition Yrotation Xrotation Zrotation 
							JOINT LeftForeArm
							{
								OFFSET 26.5 0 0
								CHANNELS 6 Xposition Yposition Zposition Yrotation Xrotation Zrotation 
								JOINT LeftHand
								{
									OFFSET 26 0 0
									CHANNELS 6 Xposition Yposition Zposition Yrotation Xrotation Zrotation 
									JOINT LeftHandThumb1
									{
										OFFSET 2.489 0.19 3.121
										CHANNELS 6 Xposition Yposition Zposition Yrotation Xrotation Zrotation 
										JOINT LeftHandThumb2
										{
											OFFSET 3.683 0 0
											CHANNELS 6 Xposition Yposition Zposition Yrotation Xrotation Zrotation 
											JOINT LeftHandThumb3
											{
												OFFSET 2.558 0 0
												CHANNELS 6 Xposition Yposition Zposition Yrotation Xrotation Zrotation 
												End Site
												{
													OFFSET 2.194 0 0
												}
											}
										}
									}
									JOINT LeftInHandIndex
									{
										OFFSET 3.224 0.508 1.978
										CHANNELS 6 Xposition Yposition Zposition Yrotation Xrotation Zrotation 
										JOINT LeftHandIndex1
										{
											OFFSET 5.217 -0.091 0.999
											CHANNELS 6 Xposition Yposition Zposition Yrotation Xrotation Zrotation 
											JOINT LeftHandIndex2
											{
												OFFSET 3.619 0 0
												CHANNELS 6 Xposition Yposition Zposition Yrotation Xrotation Zrotation 
												JOINT LeftHandIndex3
												{
													OFFSET 2.052 0 0
													CHANNELS 6 Xposition Yposition Zposition Yrotation Xrotation Zrotation 
													End Site
													{
														OFFSET 1.805 0 0
													}
												}
											}
										}
									}
									JOINT LeftInHandMiddle
									{
										OFFSET 3.382 0.517 0.757
										CHANNELS 6 Xposition Yposition Zposition Yrotation Xrotation Zrotation 
										JOINT LeftHandMiddle1
										{
											OFFSET 5.174 -0.084 0.314
											CHANNELS 6 Xposition Yposition Zposition Yrotation Xrotation Zrotation 
											JOINT LeftHandMiddle2
											{
												OFFSET 3.949 0 0
												CHANNELS 6 Xposition Yposition Zposition Yrotation Xrotation Zrotation 
												JOINT LeftHandMiddle3
												{
													OFFSET 2.476 0 0
													CHANNELS 6 Xposition Yposition Zposition Yrotation Xrotation Zrotation 
													End Site
													{
														OFFSET 1.975 0 0
													}
												}
											}
										}
									}
									JOINT LeftInHandRing
									{
										OFFSET 3.365 0.538 -0.129
										CHANNELS 6 Xposition Yposition Zposition Yrotation Xrotation Zrotation 
										JOINT LeftHandRing1
										{
											OFFSET 4.635 -0.022 -0.479
											CHANNELS 6 Xposition Yposition Zposition Yrotation Xrotation Zrotation 
											JOINT LeftHandRing2
											{
												OFFSET 3.442 0 0
												CHANNELS 6 Xposition Yposition Zposition Yrotation Xrotation Zrotation 
												JOINT LeftHandRing3
												{
													OFFSET 2.388 0 0
													CHANNELS 6 Xposition Yposition Zposition Yrotation Xrotation Zrotation 
													End Site
													{
														OFFSET 1.857 0 0
													}
												}
											}
										}
									}
									JOINT LeftInHandPinky
									{
										OFFSET 3.161 0.469 -1.202
										CHANNELS 6 Xposition Yposition Zposition Yrotation Xrotation Zrotation 
										JOINT LeftHandPinky1
										{
											OFFSET 4.141 -0.022 -1.091
											CHANNELS 6 Xposition Yposition Zposition Yrotation Xrotation Zrotation 
											JOINT LeftHandPinky2
											{
												OFFSET 2.757 0 0
												CHANNELS 6 Xposition Yposition Zposition Yrotation Xrotation Zrotation 
												JOINT LeftHandPinky3
												{
													OFFSET 1.742 0 0
													CHANNELS 6 Xposition Yposition Zposition Yrotation Xrotation Zrotation 
													End Site
													{
														OFFSET 1.645 0 0
													}
												}
											}
										}
									}
								}
							}
						}
					}
				}
			}
		}
	}
}
MOTION
Frames: 4
Frame Time: 0.008
0 93.02 0 0 0 0 -9.25 -1.59 0 0 0 0 0 -41.87 0 0 0 0 0 -41.87 0 0 0 0 9.25 -1.59 0 0 0 0 0 -41.87 0 0 0 0 0 -41.87 0 0 0 0 0 14.307 0 0 0 0 0 9.718 0 0 0 0 0 10.12 0 0 0 0 0 9.718 0 0 0 0 0 10.387 0 0 0 0 0 9.47 0 0 0 0 -3.2 6.925 0 0 0 0 -12.8 0 0 0 0 0 -26.5 0 0 0 0 0 -26 0 0 0 0 0 -2.489 0.19 3.121 0 0 0 -3.683 0 0 0 0 0 -2.558 0 0 0 0 0 -3.224 0.508 1.978 0 0 0 -5.217 -0.091 0.999 0 0 0 -3.619 0 0 0 0 0 -2.052 0 0 0 0 0 -3.382 0.517 0.757 0 0 0 -5.174 -0.084 0.314 0 0 0 -3.949 0 0 0 0 0 -2.476 0 0 0 0 0 -3.365 0.538 -0.129 0 0 0 -4.635 -0.022 -0.479 0 0 0 -3.442 0 0 0 0 0 -2.388 0 0 0 0 0 -3.161 0.469 -1.202 0 0 0 -4.141 -0.022 -1.091 0 0 0 -2.757 0 0 0 0 0 -1.742 0 0 0 0 0 3.2 6.925 0 0 0 0 12.8 0 0 0 0 0 26.5 0 0 0 0 0 26 0 0 0 0 0 2.489 0.19 3.121 0 0 0 3.683 0 0 0 0 0 2.558 0 0 0 0 0 3.224 0.508 1.978 0 0 0 5.217 -0.091 0.999 0 0 0 3.619 0 0 0 0 0 2.052 0 0 0 0 0 3.382 0.517 0.757 0 0 0 5.174 -0.084 0.314 0 0 0 3.949 0 0 0 0 0 2.476 0 0 0 0 0 3.365 0.538 -0.129 0 0 0 4.635 -0.022 -0.479 0 0 0 3.442 0 0 0 0 0 2.388 0 0 0 0 0 3.161 0.469 -1.202 0 0 0 4.141 -0.022 -1.091 0 0 0 2.757 0 0 0 0 0 1.742 0 0 0 0 0 
63.842 94.9114 15.4179 -179.15 0.813517 -1.49804 -9.21663 -1.57521 0.102321 -9.5596 -4.50666 -3.15656 -0.0758709 -41.8838 0.126943 -19.5025 22.8274 -3.91044 -0.133302 -41.8222 0.0951331 -0.0101187 -2.43791 0.0316486 9.3343 -1.57465 0.0415401 6.01838 -21.0725 8.07106 -0.0452189 -41.8569 0.0817027 -0.714753 12.1603 4.03768 -0.024156 -41.8722 0.0390458 0.00448802 -2.77957 -0.214668 0.0159228 14.3041 0.0736692 1.97522 1.75981 0.945477 -0.00413435 9.71236 0.0211002 0.495713 0.438354 0.230636 -0.020778 10.1182 -0.02811 0.830849 0.724946 0.386345 -0.00382333 9.71555 0.0339657 1.29598 -0.336451 -0.079721 -0.268436 10.3434 0.0267216 1.30945 -0.336788 -0.0805539 -0.269225 9.46426 0.0482333 24.3942 -5.54409 -2.63344 -3.19066 6.91265 0.0339195 -3.96217 4.20673 7.79173 -12.7879 -0.0111576 -0.119734 14.4041 -14.7945 56.9682 -26.5556 -0.0286533 -0.0309363 87.437 -8.35967 29.0082 -25.9006 0.291223 -0.143488 0.280545 -10.4317 -47.1769 -2.48905 0.190105 3.12053 21.86 -0 30 -3.68274 0 0 -10 -0 0 -2.55832 0 0 -10 -0 0 -3.22368 0.508421 1.97842 0 -0 0 -5.21684 -0.0913684 0.999158 2.55 -0 20 -3.61937 0 0 0 -0 24 -2.05211 0 0 0 -0 20 -3.38211 0.517263 0.756737 0 -0 0 -5.1741 -0.084 0.313895 0 -0 20 -3.94947 0 0 0 -0 24 -2.47579 0 0 0 -0 20 -3.36516 0.537895 -0.128947 0 -0 0 -4.63474 -0.0221053 -0.478947 -3 -0 20 -3.44238 0 0 0 -0 24 -2.38811 0 0 0 -0 20 -3.16105 0.469368 -1.20179 0 -0 0 -4.14105 -0.0221053 -1.09053 -8.83 -0 20 -2.75653 0 0 0 -0 24 -1.74189 0 0 0 -0 20 3.24616 6.91856 -0.00387559 -2.73703 1.79243 -2.58031 12.6476 -0.0978402 -0.168328 23.4276 -13.0563 -72.414 26.5113 -0.00621891 -0.242007 -32.6591 -2.18209 12.4795 25.9489 -0.0518907 -0.149253 -1.00116 -43.3122 101.472 2.48905 0.190105 3.12053 -21.86 -0 -30 3.68274 0 0 10 -0 0 2.55832 0 0 10 -0 0 3.22368 0.508421 1.97842 0 -0 0 5.21684 -0.0913684 0.999158 -2.55 -0 -20 3.61937 0 0 0 -0 -24 2.05211 0 0 0 -0 -20 3.38211 0.517263 0.756737 0 -0 0 5.1741 -0.084 0.313895 0 -0 -20 3.94947 0 0 0 -0 -24 2.47579 0 0 0 -0 -20 3.36516 0.537895 -0.128947 0 -0 0 4.63474 -0.0221053 -0.478947 3 -0 -20 3.44238 0 0 0 -0 -24 2.38811 0 0 0 -0 -20 3.16105 0.469368 -1.20179 0 -0 0 4.14105 -0.0221053 -1.09053 8.83 -0 -20 2.75653 0 0 0 -0 -24 1.74189 0 0 0 -0 -20 
63.7551 94.9018 15.4357 -179.15 0.813517 -1.49804 -9.21389 -1.57429 0.107921 -9.88231 -4.6346 -3.23337 -0.0783712 -41.8881 0.113417 -19.2984 23.0139 -3.89719 -0.12674 -41.8191 0.10468 -0.0101193 -2.43791 0.0316524 9.32771 -1.57737 0.0268567 5.18906 -20.955 8.3004 -0.0158718 -41.8539 0.0841102 -0.00613561 12.1534 4.01335 -0.0032286 -41.8687 0.0412787 0.0044946 -2.77957 -0.214666 0.0138577 14.3041 0.0719923 1.98312 1.77535 0.945068 -0.0037649 9.70945 0.0206246 0.497703 0.442238 0.23046 -0.018132 10.118 -0.0222696 0.834205 0.731397 0.386078 0.000348257 9.71552 0.0327248 1.08412 -0.301747 -0.0310565 -0.313066 10.3403 0.0796304 1.09172 -0.302566 -0.0313955 -0.320308 9.46744 0.0848314 20.0935 -5.31919 -1.46718 -3.18584 6.91552 0.0365551 -3.92413 4.08766 7.6818 -12.7811 -0.011856 -0.108576 14.166 -14.7149 57.1454 -26.5441 -0.0408907 -0.0297042 86.9555 -8.44121 28.7985 -25.9145 0.267719 -0.128044 0.368603 -10.3409 -47.4989 -2.48905 0.190105 3.12053 21.86 -0 30 -3.68274 0 0 -10 -0 0 -2.55832 0 0 -10 -0 0 -3.22368 0.508421 1.97842 0 -0 0 -5.21684 -0.0913684 0.999158 2.55 -0 20 -3.61937 0 0 0 -0 24 -2.05211 0 0 0 -0 20 -3.38211 0.517263 0.756737 0 -0 0 -5.1741 -0.084 0.313895 0 -0 20 -3.94947 0 0 0 -0 24 -2.47579 0 0 0 -0 20 -3.36516 0.537895 -0.128947 0 -0 0 -4.63474 -0.0221053 -0.478947 -3 -0 20 -3.44238 0 0 0 -0 24 -2.38811 0 0 0 -0 20 -3.16105 0.469368 -1.20179 0 -0 0 -4.14105 -0.0221053 -1.09053 -8.83 -0 20 -2.75653 0 0 0 -0 24 -1.74189 0 0 0 -0 20 3.25037 6.92598 -0.00722692 -2.50213 1.82567 -2.71438 12.6523 -0.0928147 -0.160171 23.5313 -12.914 -72.5149 26.5113 -0.00659195 -0.226373 -32.5015 -1.9841 12.5312 25.9514 -0.0533481 -0.134922 -0.810751 -43.8476 101.026 2.48905 0.190105 3.12053 -21.86 -0 -30 3.68274 0 0 10 -0 0 2.55832 0 0 10 -0 0 3.22368 0.508421 1.97842 0 -0 0 5.21684 -0.0913684 0.999158 -2.55 -0 -20 3.61937 0 0 0 -0 -24 2.05211 0 0 0 -0 -20 3.38211 0.517263 0.756737 0 -0 0 5.1741 -0.084 0.313895 0 -0 -20 3.94947 0 0 0 -0 -24 2.47579 0 0 0 -0 -20 3.36516 0.537895 -0.128947 0 -0 0 4.63474 -0.0221053 -0.478947 3 -0 -20 3.44238 0 0 0 -0 -24 2.38811 0 0 0 -0 -20 3.16105 0.469368 -1.20179 0 -0 0 4.14105 -0.0221053 -1.09053 8.83 -0 -20 2.75653 0 0 0 -0 -24 1.74189 0 0 0 -0 -20 
63.659 94.8948 15.4241 -179.15 0.813517 -1.49804 -9.21527 -1.57389 0.116246 -10.3112 -4.68341 -3.28883 -0.0775453 -41.8896 0.104614 -19.1046 23.0793 -3.90216 -0.113308 -41.8161 0.115864 -0.0101101 -2.43791 0.0316522 9.31299 -1.57872 0.0164563 4.46534 -20.8534 8.51661 -0.0434107 -41.8534 0.073723 0.578061 12.1189 4.10307 -0.0692953 -41.8746 0.029284 0.00449138 -2.77956 -0.21467 0.0119454 14.3042 0.0686041 1.98981 1.81563 0.944198 -0.00332802 9.70774 0.0192553 0.499416 0.452317 0.230091 -0.0166535 10.1179 -0.0171949 0.837163 0.748173 0.385518 0.00301736 9.71538 0.0286479 0.831872 -0.248359 0.0188468 -0.34126 10.3389 0.152177 0.835091 -0.249342 0.0187952 -0.346707 9.4719 0.164513 15.1756 -4.61923 -0.235971 -3.18422 6.91683 0.0343206 -3.84636 3.92364 7.58487 -12.7823 -0.0123491 -0.0957866 13.8683 -14.7023 57.3333 -26.5378 -0.0323495 -0.0208186 86.4236 -8.54144 28.6078 -25.9261 0.259602 -0.1155 0.515098 -10.1963 -47.8074 -2.48905 0.190105 3.12053 21.86 -0 30 -3.68274 0 0 -10 -0 0 -2.55832 0 0 -10 -0 0 -3.22368 0.508421 1.97842 0 -0 0 -5.21684 -0.0913684 0.999158 2.55 -0 20 -3.61937 0 0 0 -0 24 -2.05211 0 0 0 -0 20 -3.38211 0.517263 0.756737 0 -0 0 -5.1741 -0.084 0.313895 0 -0 20 -3.94947 0 0 0 -0 24 -2.47579 0 0 0 -0 20 -3.36516 0.537895 -0.128947 0 -0 0 -4.63474 -0.0221053 -0.478947 -3 -0 20 -3.44238 0 0 0 -0 24 -2.38811 0 0 0 -0 20 -3.16105 0.469368 -1.20179 0 -0 0 -4.14105 -0.0221053 -1.09053 -8.83 -0 20 -2.75653 0 0 0 -0 24 -1.74189 0 0 0 -0 20 3.25129 6.93012 -0.0142405 -2.28105 1.84871 -2.82773 12.6581 -0.089161 -0.153536 23.5482 -12.7592 -72.6441 26.5117 -0.00680182 -0.210492 -32.3763 -1.85749 12.6656 25.9425 -0.0687474 -0.131902 -0.584322 -44.2149 100.451 2.48905 0.190105 3.12053 -21.86 -0 -30 3.68274 0 0 10 -0 0 2.55832 0 0 10 -0 0 3.22368 0.508421 1.97842 0 -0 0 5.21684 -0.0913684 0.999158 -2.55 -0 -20 3.61937 0 0 0 -0 -24 2.05211 0 0 0 -0 -20 3.38211 0.517263 0.756737 0 -0 0 5.1741 -0.084 0.313895 0 -0 -20 3.94947 0 0 0 -0 -24 2.47579 0 0 0 -0 -20 3.36516 0.537895 -0.128947 0 -0 0 4.63474 -0.0221053 -0.478947 3 -0 -20 3.44238 0 0 0 -0 -24 2.38811 0 0 0 -0 -20 3.16105 0.469368 -1.20179 0 -0 0 4.14105 -0.0221053 -1.09053 8.83 -0 -20 2.75653 0 0 0 -0 -24 1.74189 0 0 0 -0 -20 
